# xmcd
#
# Track frame offsets:
#	150
#	14987
#	28211
#	42712
#	56153
#	70431
#	86131
#	100691
#	115507
#	129410
#
# Disc length: 1930 seconds
#
# Revision: 0
# Processed by: cddbd v1.5.2PL0 Copyright (c) Steve Scherf et al.
# Submitted via: EasyCDDAExtractor 16.0.6.1
#
DISCID=9207880a
DTITLE=Συλλογικός δίσκος - Ιστορία ρεμπέτικου και λαϊκού 09-2
DYEAR=2007
DGENRE=Ποικίλη
TTITLE0=Χατζοπούλου Μαριάννα - Τι να το κάνω πως είσαι ωραίος [Απ. Καλδάρας]
TTITLE1=Γαβαλάς Πάνος-Κούρτη Ρία - Θα βρω μουρμούρη μπαγλαμά[Α.Καλδάρας-Ε.Παπα
TTITLE1=γιαν/λου]
TTITLE2=Γαβαλάς Πάνος-Λίντα Μαίρη - Εσύ δεν είσαι άνθρωπος [Μ. Χιώτης-Χρ. Κολο
TTITLE2=κοτρώνης]
TTITLE3=Λίντα Μαίρη-Χιώτης Μανώλης - Η φτώχεια θέλει καλοπέραση [Ιωάν. Βέλλας-
TTITLE3=Ορ. Λάσκος]
TTITLE4=Λίντα Μαίρη-Χιώτης Μανώλης - Απότομα [Μαν. Χιώτης]
TTITLE5=Λύδια Γιώτα-Ατταλίδης Στράτος - Μιά μελαχροινή [Στ. Περπινιάδης-Παν. Κ
TTITLE5=οκοντίνης]
TTITLE6=Καζαντζίδης Στέλιος - Η γυναίκα [Γιώργος Μητσάκης]
TTITLE7=Λύδια Γιώτα - Σπαταναίϊσσα [Τηλέμαχος Χλέκος] 
TTITLE8=Καζαντζίδης Στέλιος - Ουΐσκι, τζιν και φρούμελ [Β. Καραπατάκης-Χρ. Κολ
TTITLE8=οκοτρώνης]
TTITLE9=Λύδια Γιώτα-Καζαντζίδης Στέλιος - Γιατί πατέρα [Απ. Καλδάρας]
EXTD=
EXTT0=
EXTT1=
EXTT2=
EXTT3=
EXTT4=
EXTT5=
EXTT6=
EXTT7=
EXTT8=
EXTT9=
PLAYORDER=
